<?xml version="1.0" encoding="UTF-8" standalone="no"?>
<svg
   xmlns:dc="http://purl.org/dc/elements/1.1/"
   xmlns:cc="http://creativecommons.org/ns#"
   xmlns:rdf="http://www.w3.org/1999/02/22-rdf-syntax-ns#"
   xmlns:svg="http://www.w3.org/2000/svg"
   xmlns="http://www.w3.org/2000/svg"
   viewBox="0 0 233.8 353.56"
   height="353.56"
   width="233.8"
   xml:space="preserve"
   id="svg2"
   version="1.1"><metadata
     id="metadata8"><rdf:RDF><cc:Work
         rdf:about=""><dc:format>image/svg+xml</dc:format><dc:type
           rdf:resource="http://purl.org/dc/dcmitype/StillImage" /></cc:Work></rdf:RDF></metadata><defs
     id="defs6" /><g
     transform="matrix(1.3333333,0,0,-1.3333333,0,353.56)"
     id="g10"><g
       transform="scale(0.1)"
       id="g12"><path
         id="path14"
         style="fill:#f2b82f;fill-opacity:1;fill-rule:nonzero;stroke:none"
         d="M 876.773,2133.23 C 393.32,2133.23 0,1739.91 0,1256.47 0,773.012 393.32,379.68 876.773,379.68 c 483.477,0 876.777,393.332 876.777,876.79 0,483.44 -393.3,876.76 -876.777,876.76" /><path
         id="path16"
         style="fill:#5e2e16;fill-opacity:1;fill-rule:nonzero;stroke:none"
         d="m 876.773,1975.82 c -396.652,0 -719.355,-322.7 -719.355,-719.35 0,-396.669 322.703,-719.349 719.355,-719.349 396.647,0 719.337,322.68 719.337,719.349 0,396.65 -322.69,719.35 -719.337,719.35" /><path
         id="path18"
         style="fill:#5e2e16;fill-opacity:1;fill-rule:nonzero;stroke:none"
         d="m 1615.31,1243.7 h 119.02 v 25.5117 h -119.02 z" /><path
         id="path20"
         style="fill:#5e2e16;fill-opacity:1;fill-rule:nonzero;stroke:none"
         d="m 1729.48,1164.3 -118.51,10.97 2.35,25.39 118.51,-10.98 -2.35,-25.38" /><path
         id="path22"
         style="fill:#5e2e16;fill-opacity:1;fill-rule:nonzero;stroke:none"
         d="m 1717.31,1085.67 -116.97,21.89 4.67,25.04 116.98,-21.85 -4.68,-25.08" /><path
         id="path24"
         style="fill:#5e2e16;fill-opacity:1;fill-rule:nonzero;stroke:none"
         d="m 1697.92,1008.53 -114.44,32.56 6.97,24.53 114.48,-32.59 -7.01,-24.5" /><path
         id="path26"
         style="fill:#5e2e16;fill-opacity:1;fill-rule:nonzero;stroke:none"
         d="m 1671.53,933.48 -110.99,43 9.24,23.76 110.97,-42.998 -9.22,-23.762" /><path
         id="path28"
         style="fill:#5e2e16;fill-opacity:1;fill-rule:nonzero;stroke:none"
         d="m 1638.31,861.211 -106.55,53.051 11.38,22.797 106.55,-53.039 -11.38,-22.809" /><path
         id="path30"
         style="fill:#5e2e16;fill-opacity:1;fill-rule:nonzero;stroke:none"
         d="m 1598.56,792.281 -101.18,62.68 13.41,21.668 101.2,-62.66 -13.43,-21.688" /><path
         id="path32"
         style="fill:#5e2e16;fill-opacity:1;fill-rule:nonzero;stroke:none"
         d="m 1552.6,727.34 -94.95,71.73 15.39,20.379 94.94,-71.789 -15.38,-20.32" /><path
         id="path34"
         style="fill:#5e2e16;fill-opacity:1;fill-rule:nonzero;stroke:none"
         d="m 1500.84,666.91 -87.92,80.231 17.19,18.828 87.93,-80.219 -17.2,-18.84" /><path
         id="path36"
         style="fill:#5e2e16;fill-opacity:1;fill-rule:nonzero;stroke:none"
         d="m 1443.75,611.5 -80.14,88.02 18.86,17.152 80.13,-88 -18.85,-17.172" /><path
         id="path38"
         style="fill:#5e2e16;fill-opacity:1;fill-rule:nonzero;stroke:none"
         d="m 1381.76,561.641 -71.67,95 20.36,15.339 71.69,-95 -20.38,-15.339" /><path
         id="path40"
         style="fill:#5e2e16;fill-opacity:1;fill-rule:nonzero;stroke:none"
         d="m 1315.44,517.691 -62.57,101.207 21.69,13.454 62.59,-101.262 -21.71,-13.399" /><path
         id="path42"
         style="fill:#5e2e16;fill-opacity:1;fill-rule:nonzero;stroke:none"
         d="m 1245.36,480.039 -52.99,106.57 22.84,11.36 52.98,-106.559 -22.83,-11.371" /><path
         id="path44"
         style="fill:#5e2e16;fill-opacity:1;fill-rule:nonzero;stroke:none"
         d="m 1172.08,449.031 -42.9,111.028 23.79,9.191 42.89,-111.008 -23.78,-9.211" /><path
         id="path46"
         style="fill:#5e2e16;fill-opacity:1;fill-rule:nonzero;stroke:none"
         d="m 1096.29,424.93 -32.5,114.519 24.54,6.973 32.49,-114.512 -24.53,-6.98" /><path
         id="path48"
         style="fill:#5e2e16;fill-opacity:1;fill-rule:nonzero;stroke:none"
         d="m 1018.56,407.941 -21.759,117.02 25.059,4.648 21.78,-117 -25.08,-4.668" /><path
         id="path50"
         style="fill:#5e2e16;fill-opacity:1;fill-rule:nonzero;stroke:none"
         d="m 939.613,398.18 -10.886,118.531 25.398,2.32 10.891,-118.531 -25.403,-2.32" /><path
         id="path52"
         style="fill:#5e2e16;fill-opacity:1;fill-rule:nonzero;stroke:none"
         d="m 885.59,395.711 -25.496,0.031 0.105,119.008 h 25.5 L 885.59,395.711" /><path
         id="path54"
         style="fill:#5e2e16;fill-opacity:1;fill-rule:nonzero;stroke:none"
         d="m 806.09,398.27 -25.399,2.402 11.09,118.488 25.391,-2.371 L 806.09,398.27" /><path
         id="path56"
         style="fill:#5e2e16;fill-opacity:1;fill-rule:nonzero;stroke:none"
         d="m 727.148,408.18 -25.074,4.73 21.996,116.981 25.067,-4.731 -21.989,-116.98" /><path
         id="path58"
         style="fill:#5e2e16;fill-opacity:1;fill-rule:nonzero;stroke:none"
         d="m 649.453,425.301 -24.515,7.051 32.691,114.437 24.519,-7.008 -32.695,-114.48" /><path
         id="path60"
         style="fill:#5e2e16;fill-opacity:1;fill-rule:nonzero;stroke:none"
         d="m 573.695,449.59 -23.785,9.25 43.117,110.922 23.774,-9.231 -43.106,-110.941" /><path
         id="path62"
         style="fill:#5e2e16;fill-opacity:1;fill-rule:nonzero;stroke:none"
         d="m 500.473,480.699 -22.817,11.383 53.184,106.52 22.812,-11.411 -53.179,-106.492" /><path
         id="path64"
         style="fill:#5e2e16;fill-opacity:1;fill-rule:nonzero;stroke:none"
         d="m 430.449,518.461 -21.672,13.48 62.801,101.11 21.652,-13.469 -62.781,-101.121" /><path
         id="path66"
         style="fill:#5e2e16;fill-opacity:1;fill-rule:nonzero;stroke:none"
         d="m 364.211,562.531 -20.332,15.391 71.851,94.91 20.348,-15.41 -71.867,-94.891" /><path
         id="path68"
         style="fill:#5e2e16;fill-opacity:1;fill-rule:nonzero;stroke:none"
         d="m 302.336,612.52 -18.828,17.21 80.305,87.872 18.828,-17.223 -80.305,-87.859" /><path
         id="path70"
         style="fill:#5e2e16;fill-opacity:1;fill-rule:nonzero;stroke:none"
         d="m 245.328,668 -17.164,18.859 88.07,80.102 L 333.383,748.07 245.328,668" /><path
         id="path72"
         style="fill:#5e2e16;fill-opacity:1;fill-rule:nonzero;stroke:none"
         d="m 193.676,728.551 -15.332,20.359 95.094,71.59 15.328,-20.379 -95.09,-71.57" /><path
         id="path74"
         style="fill:#5e2e16;fill-opacity:1;fill-rule:nonzero;stroke:none"
         d="m 147.852,793.559 -13.399,21.711 101.289,62.5 13.399,-21.688 -101.289,-62.523" /><path
         id="path76"
         style="fill:#5e2e16;fill-opacity:1;fill-rule:nonzero;stroke:none"
         d="M 108.207,862.539 96.8789,885.391 203.516,938.27 214.84,915.422 108.207,862.539" /><path
         id="path78"
         style="fill:#5e2e16;fill-opacity:1;fill-rule:nonzero;stroke:none"
         d="m 75.1289,934.871 -9.1914,23.801 111.0585,42.818 9.188,-23.799 -111.0551,-42.82" /><path
         id="path80"
         style="fill:#5e2e16;fill-opacity:1;fill-rule:nonzero;stroke:none"
         d="m 48.8398,1009.97 -6.9414,24.52 114.5426,32.4 6.934,-24.54 -114.5352,-32.38" /><path
         id="path82"
         style="fill:#5e2e16;fill-opacity:1;fill-rule:nonzero;stroke:none"
         d="m 29.6133,1087.16 -4.6524,25.06 117.0351,21.7 4.649,-25.1 -117.0317,-21.66" /><path
         id="path84"
         style="fill:#5e2e16;fill-opacity:1;fill-rule:nonzero;stroke:none"
         d="m 17.5898,1165.79 -2.3164,25.4 118.5276,10.78 2.32,-25.4 -118.5312,-10.78" /><path
         id="path86"
         style="fill:#5e2e16;fill-opacity:1;fill-rule:nonzero;stroke:none"
         d="m 131.891,1245.02 -119.0238,0.21 0.0469,25.5 119.0239,-0.24 -0.047,-25.47" /><path
         id="path88"
         style="fill:#5e2e16;fill-opacity:1;fill-rule:nonzero;stroke:none"
         d="m 134.004,1313.53 -118.4923,11.2 2.4024,25.39 118.4919,-11.19 -2.402,-25.4" /><path
         id="path90"
         style="fill:#5e2e16;fill-opacity:1;fill-rule:nonzero;stroke:none"
         d="m 142.426,1381.56 -116.9533,22.08 4.7461,25.08 116.9452,-22.1 -4.738,-25.06" /><path
         id="path92"
         style="fill:#5e2e16;fill-opacity:1;fill-rule:nonzero;stroke:none"
         d="m 157.113,1448.52 -114.4216,32.79 7.0274,24.54 114.4182,-32.8 -7.024,-24.53" /><path
         id="path94"
         style="fill:#5e2e16;fill-opacity:1;fill-rule:nonzero;stroke:none"
         d="m 177.895,1513.86 -110.9028,43.21 9.2695,23.76 110.9023,-43.21 -9.269,-23.76" /><path
         id="path96"
         style="fill:#5e2e16;fill-opacity:1;fill-rule:nonzero;stroke:none"
         d="m 204.641,1576.99 -106.4535,53.27 11.4175,22.79 106.45,-53.27 -11.414,-22.79" /><path
         id="path98"
         style="fill:#5e2e16;fill-opacity:1;fill-rule:nonzero;stroke:none"
         d="m 237.078,1637.38 -101.066,62.86 13.476,21.67 101.059,-62.87 -13.469,-21.66" /><path
         id="path100"
         style="fill:#5e2e16;fill-opacity:1;fill-rule:nonzero;stroke:none"
         d="m 274.973,1694.51 -94.84,71.94 15.41,20.32 94.832,-71.94 -15.402,-20.32" /><path
         id="path102"
         style="fill:#5e2e16;fill-opacity:1;fill-rule:nonzero;stroke:none"
         d="m 317.969,1747.91 -87.781,80.38 17.218,18.81 87.793,-80.38 -17.23,-18.81" /><path
         id="path104"
         style="fill:#5e2e16;fill-opacity:1;fill-rule:nonzero;stroke:none"
         d="m 365.703,1797.1 -79.984,88.15 18.89,17.15 79.993,-88.14 -18.899,-17.16" /><path
         id="path106"
         style="fill:#5e2e16;fill-opacity:1;fill-rule:nonzero;stroke:none"
         d="m 417.777,1841.69 -71.507,95.14 20.402,15.33 71.508,-95.16 -20.403,-15.31" /><path
         id="path108"
         style="fill:#5e2e16;fill-opacity:1;fill-rule:nonzero;stroke:none"
         d="m 473.754,1881.28 -62.414,101.35 21.723,13.36 62.417,-101.35 -21.726,-13.36" /><path
         id="path110"
         style="fill:#5e2e16;fill-opacity:1;fill-rule:nonzero;stroke:none"
         d="m 533.164,1915.52 -52.812,106.66 22.855,11.32 52.813,-106.67 -22.856,-11.31" /><path
         id="path112"
         style="fill:#5e2e16;fill-opacity:1;fill-rule:nonzero;stroke:none"
         d="m 595.469,1944.13 -42.735,111.1 23.793,9.15 42.731,-111.09 -23.789,-9.16" /><path
         id="path114"
         style="fill:#5e2e16;fill-opacity:1;fill-rule:nonzero;stroke:none"
         d="m 660.137,1966.88 -32.301,114.56 24.562,6.92 32.29,-114.58 -24.551,-6.9" /><path
         id="path116"
         style="fill:#5e2e16;fill-opacity:1;fill-rule:nonzero;stroke:none"
         d="m 726.637,1983.55 -21.582,117.06 25.078,4.62 21.57,-117.06 -25.066,-4.62" /><path
         id="path118"
         style="fill:#5e2e16;fill-opacity:1;fill-rule:nonzero;stroke:none"
         d="m 794.379,1994.01 -10.672,118.53 25.41,2.31 10.664,-118.57 -25.402,-2.27" /><path
         id="path120"
         style="fill:#5e2e16;fill-opacity:1;fill-rule:nonzero;stroke:none"
         d="m 888.305,1998.08 -25.512,0.1 0.336,119.02 25.488,-0.07 -0.312,-119.05" /><path
         id="path122"
         style="fill:#5e2e16;fill-opacity:1;fill-rule:nonzero;stroke:none"
         d="m 956.715,1993.59 -25.402,2.4 11.32,118.51 25.39,-2.43 -11.308,-118.48" /><path
         id="path124"
         style="fill:#5e2e16;fill-opacity:1;fill-rule:nonzero;stroke:none"
         d="m 1024.41,1982.77 -25.051,4.75 22.181,116.93 25.07,-4.75 -22.2,-116.93" /><path
         id="path126"
         style="fill:#5e2e16;fill-opacity:1;fill-rule:nonzero;stroke:none"
         d="m 1090.83,1965.73 -24.53,7.05 32.89,114.38 24.52,-7.04 -32.88,-114.39" /><path
         id="path128"
         style="fill:#5e2e16;fill-opacity:1;fill-rule:nonzero;stroke:none"
         d="m 1155.38,1942.65 -23.75,9.28 43.3,110.87 23.77,-9.28 -43.32,-110.87" /><path
         id="path130"
         style="fill:#5e2e16;fill-opacity:1;fill-rule:nonzero;stroke:none"
         d="m 1217.53,1913.7 -22.81,11.43 53.37,106.39 22.79,-11.42 -53.35,-106.4" /><path
         id="path132"
         style="fill:#5e2e16;fill-opacity:1;fill-rule:nonzero;stroke:none"
         d="m 1276.74,1879.16 -21.66,13.48 62.97,101.02 21.65,-13.5 -62.96,-101" /><path
         id="path134"
         style="fill:#5e2e16;fill-opacity:1;fill-rule:nonzero;stroke:none"
         d="m 1332.5,1839.27 -20.31,15.41 72.03,94.78 20.3,-15.42 -72.02,-94.77" /><path
         id="path136"
         style="fill:#5e2e16;fill-opacity:1;fill-rule:nonzero;stroke:none"
         d="m 1384.35,1794.42 -18.81,17.24 80.47,87.71 18.78,-17.24 -80.44,-87.71" /><path
         id="path138"
         style="fill:#5e2e16;fill-opacity:1;fill-rule:nonzero;stroke:none"
         d="m 1431.82,1744.97 -17.12,18.91 88.22,79.9 17.1,-18.89 -88.2,-79.92" /><path
         id="path140"
         style="fill:#5e2e16;fill-opacity:1;fill-rule:nonzero;stroke:none"
         d="m 1474.53,1691.34 -15.29,20.41 95.21,71.43 15.31,-20.41 -95.23,-71.43" /><path
         id="path142"
         style="fill:#5e2e16;fill-opacity:1;fill-rule:nonzero;stroke:none"
         d="m 1512.12,1634.01 -13.35,21.74 101.41,62.32 13.34,-21.75 -101.4,-62.31" /><path
         id="path144"
         style="fill:#5e2e16;fill-opacity:1;fill-rule:nonzero;stroke:none"
         d="m 1544.25,1573.45 -11.28,22.87 106.71,52.7 11.31,-22.88 -106.74,-52.69" /><path
         id="path146"
         style="fill:#5e2e16;fill-opacity:1;fill-rule:nonzero;stroke:none"
         d="m 1570.65,1510.19 -9.14,23.82 111.16,42.58 9.11,-23.8 -111.13,-42.6" /><path
         id="path148"
         style="fill:#5e2e16;fill-opacity:1;fill-rule:nonzero;stroke:none"
         d="m 1591.09,1444.75 -6.92,24.55 114.62,32.18 6.9,-24.57 -114.6,-32.16" /><path
         id="path150"
         style="fill:#5e2e16;fill-opacity:1;fill-rule:nonzero;stroke:none"
         d="m 1605.41,1377.7 -4.6,25.1 117.1,21.46 4.57,-25.11 -117.07,-21.45" /><path
         id="path152"
         style="fill:#5e2e16;fill-opacity:1;fill-rule:nonzero;stroke:none"
         d="m 1613.49,1309.62 -2.27,25.41 118.55,10.56 2.28,-25.41 -118.56,-10.56" /><path
         id="path154"
         style="fill:#f2b82f;fill-opacity:1;fill-rule:nonzero;stroke:none"
         d="m 1132.78,1807.11 c 0.34,44.59 -33.76,80.12 -74.28,93.56 -35.22,8.57 -73.074,-3.04 -101.055,-25.08 0,0 -9.851,-9.95 -17.332,0.09 -11.836,15.91 -15.109,37.64 -19.425,56.89 -6.18,-21.38 -15.985,-70.84 -44.657,-70.9 -28.644,-0.06 -38.488,49.37 -44.668,70.69 -4.312,-19.28 -7.562,-41.02 -19.406,-56.96 -7.488,-10.08 -17.309,-0.19 -17.309,-0.19 -28.031,21.93 -65.914,33.34 -101.043,24.61 -40.48,-13.63 -74.558,-49.22 -74.23,-93.83 0.039,-41.62 28.008,-72.95 71.586,-67.92 10.098,1.17 24.816,5.97 35.094,17.32 22.793,25.15 36.347,82.12 -8.742,93.12 -8.735,2.13 -21.028,-1 -25.461,-4.49 -7.922,-6.25 -14.786,-16.9 -15.157,-26 -0.781,-18.09 12.368,-20.55 11.86,-16.59 -1.371,10.68 18.578,23.82 25.992,11.82 11.836,-19.18 -4.637,-40.18 -24.137,-44.94 -26.269,-6.4 -39.625,22.11 -37.605,43.85 2.336,25.01 20.144,45.39 42.957,54.61 70.894,28.65 112.816,-55.56 128.902,-110.14 7.422,24.87 18.031,67.9 51.367,67.98 33.321,0.06 43.965,-42.97 51.367,-67.78 16.075,54.62 57.899,139.12 128.942,110.76 22.84,-9.12 40.66,-29.46 42.99,-54.45 2,-21.78 -11.31,-50.36 -37.65,-44.05 -19.53,4.69 -35.95,25.64 -24.13,44.85 7.43,12.04 27.4,-1 26,-11.72 -0.48,-3.94 12.64,-1.43 11.88,16.67 -0.41,9.1 -7.25,19.77 -15.16,25.97 -4.44,3.45 -16.77,6.56 -25.48,4.37 -45.02,-11.21 -31.64,-68.04 -8.74,-93.24 10.27,-11.32 24.98,-16.05 35.09,-17.17 43.66,-4.84 71.59,26.64 71.64,68.29" /><path
         id="path156"
         style="fill:#f2b82f;fill-opacity:1;fill-rule:evenodd;stroke:none"
         d="m 1196.4,794.109 c 25.46,-7.257 54.14,-16.679 65.31,-43.109 6.37,-15.078 3.52,-33.82 -7.49,-45.668 -7.77,-8.371 -20.48,-13.41 -31.34,-10.133 -6.52,1.949 -10.5,9.903 -10.42,17.449 0.13,10.622 6.15,15.493 15.81,18.422 6.84,2.039 13.81,4.129 12.31,10.61 -1.39,5.968 -16.22,5.41 -22.46,3.562 -30.47,-8.933 -33.77,-61.242 -0.56,-69.082 24.25,-5.762 49.65,6.559 60.64,28.789 17.08,34.551 3.6,61.582 -21.09,87.153 -2.56,2.668 -5.19,6.168 -2.22,10.699 4.26,6.5 20.78,12.179 27.57,15.109 3.31,1.399 6.44,4.488 6.33,8.84 -0.25,8.648 -6.36,8.719 -13.55,8.949 -18.95,0.563 -37.15,-9.687 -53.16,-19.058 -12.33,-7.219 -16.16,-3.481 -7.01,7.898 9.19,11.441 14.22,23.652 17.01,37.16 2.84,13.723 -4.58,31.012 -17.5,38.68 -7.06,4.211 -21.4,8.93 -22.57,-3.109 -0.45,-4.79 3.16,-13.071 2.95,-20.571 -1.05,-35.668 -60.75,-47.84 -64.96,-8.699 -2.84,26.359 18.54,48.789 37.92,57.93 17.38,8.199 6.64,23.922 -9.02,15.871 -20.66,-10.602 -39.89,-24.832 -49.01,-47.512 -12.65,-31.43 -1.26,-75.398 32.33,-87.687 17.14,-6.282 36.16,-8.5 54.18,-12.493 v 0" /><path
         id="path158"
         style="fill:#f2b82f;fill-opacity:1;fill-rule:evenodd;stroke:none"
         d="m 568.023,794.012 c -25.48,-7.282 -54.097,-16.703 -65.257,-43.153 -6.371,-15.039 -3.563,-33.8 7.425,-45.64 7.789,-8.328 20.477,-13.387 31.364,-10.11 6.48,1.95 10.48,9.903 10.394,17.473 -0.148,10.617 -6.129,15.488 -15.801,18.387 -6.808,2.062 -13.793,4.09 -12.281,10.57 1.406,6 16.215,5.41 22.434,3.602 30.476,-8.942 33.66,-61.161 0.512,-69.032 -24.192,-5.738 -49.59,6.493 -60.547,28.711 -17.055,34.571 -3.524,61.571 21.093,87.129 2.551,2.653 5.196,6.153 2.207,10.723 -4.253,6.457 -20.718,12.16 -27.523,15.058 -3.289,1.399 -6.438,4.489 -6.316,8.829 0.257,8.671 6.32,8.722 13.531,8.972 18.906,0.578 37.121,-9.672 53.086,-19.019 12.324,-7.192 16.176,-3.473 7.043,7.898 -9.188,11.43 -14.242,23.649 -17.016,37.149 -2.828,13.722 4.582,31.031 17.492,38.691 7.035,4.199 21.371,8.961 22.532,-3.102 0.48,-4.796 -3.141,-13.019 -2.938,-20.546 1.047,-35.653 60.723,-47.801 64.918,-8.672 2.82,26.359 -18.539,48.769 -37.898,57.922 -17.395,8.199 -6.672,23.898 8.996,15.859 20.664,-10.59 39.894,-24.801 49.004,-47.461 12.632,-31.41 1.304,-75.398 -32.289,-87.719 -17.133,-6.269 -36.157,-8.511 -54.165,-12.519 v 0" /><path
         id="path160"
         style="fill:#f2b82f;fill-opacity:1;fill-rule:nonzero;stroke:none"
         d="m 986.684,900.73 c 6.074,-8.429 9.511,-17.871 9.511,-27.89 0,-35.008 -41.816,-63.371 -93.425,-63.371 -26.989,0 -51.282,7.773 -68.34,20.179 13.992,-6.386 31.531,-10.199 50.574,-10.199 1.445,0 2.891,0.02 4.328,0.071 -28.262,3.472 -49.699,20.269 -49.699,40.421 0,22.707 27.137,41.098 60.586,41.098 33.449,0 60.566,-18.391 60.566,-41.098 0,-6.492 -2.226,-12.621 -6.18,-18.082 8.497,7.731 13.477,16.973 13.477,26.911 0,27.25 -37.187,49.32 -83.078,49.32 -28.797,0 -54.176,-8.692 -69.074,-21.891 11.699,20.031 38.023,35.043 70.043,39 -2.207,0.051 -4.446,0.082 -6.66,0.082 -70.801,0 -128.18,-34.062 -128.18,-76.039 0,-42.023 57.379,-76.062 128.18,-76.062 70.761,0 128.147,34.039 128.147,76.062 0,15.289 -7.651,29.559 -20.776,41.488" /><path
         id="path162"
         style="fill:#f2b82f;fill-opacity:1;fill-rule:nonzero;stroke:none"
         d="m 746.047,695.332 c -4.442,-3.152 -9.234,-5.5 -14.375,-7.062 -5.145,-1.54 -10.809,-2.321 -16.961,-2.321 -5.356,0 -10.398,0.793 -15.145,2.371 -4.73,1.602 -8.914,3.899 -12.546,6.879 -4.161,3.43 -7.254,7.36 -9.243,11.781 -2.007,4.442 -3.011,9.571 -3.011,15.399 0,10.652 3.789,19.211 11.312,25.793 7.539,6.508 17.477,9.777 29.805,9.777 5.109,0 10,-0.64 14.68,-1.918 4.675,-1.312 9.132,-3.242 13.406,-5.82 l -5.02,-16.481 -1.437,0.211 c -1.043,6.719 -3.274,11.758 -6.688,15.219 -3.422,3.442 -7.953,5.172 -13.601,5.172 -6.981,0 -12.457,-2.781 -16.457,-8.301 -3.989,-5.539 -5.977,-13.269 -5.977,-23.109 0,-10.563 1.984,-18.731 5.965,-24.57 3.965,-5.832 9.543,-8.75 16.723,-8.75 5.992,0 10.722,1.91 14.183,5.73 3.457,3.816 5.852,9.77 7.188,17.867 l 1.472,0.082 5.727,-17.949" /><path
         id="path164"
         style="fill:#f2b82f;fill-opacity:1;fill-rule:nonzero;stroke:none"
         d="m 787.945,689.41 c 6.598,0 11.52,2.692 14.754,8.039 3.207,5.371 4.828,13.563 4.828,24.571 0,11.039 -1.621,19.199 -4.808,24.511 -3.207,5.328 -8.129,7.961 -14.774,7.961 -6.695,0 -11.629,-2.621 -14.785,-7.883 -3.156,-5.23 -4.73,-13.449 -4.73,-24.589 0,-11.129 1.582,-19.379 4.761,-24.649 3.172,-5.312 8.094,-7.961 14.754,-7.961 z m -39.156,32.789 c 0,5.281 1.024,10.16 3.07,14.633 2.036,4.449 5.059,8.43 9.063,11.887 3.543,3.031 7.586,5.351 12.129,6.91 4.562,1.582 9.465,2.32 14.769,2.32 5.582,0 10.602,-0.738 15.047,-2.289 4.438,-1.57 8.457,-3.91 12.043,-7.031 4.082,-3.578 7.153,-7.57 9.192,-12 2.05,-4.449 3.07,-9.25 3.07,-14.43 0,-5.179 -1.055,-9.969 -3.117,-14.449 -2.075,-4.449 -5.203,-8.539 -9.352,-12.25 -3.414,-3.102 -7.414,-5.441 -11.988,-7.09 -4.578,-1.648 -9.485,-2.461 -14.68,-2.461 -5.324,0 -10.324,0.86 -15.031,2.551 -4.723,1.699 -8.859,4.07 -12.406,7.23 -3.766,3.418 -6.703,7.399 -8.739,11.981 -2.046,4.57 -3.07,9.398 -3.07,14.488" /><path
         id="path166"
         style="fill:#f2b82f;fill-opacity:1;fill-rule:nonzero;stroke:none"
         d="M 827.652,687.602 V 689 c 2.856,0.602 4.825,2.191 5.856,4.781 1.019,2.528 1.543,8.481 1.543,17.778 v 35.05 c 0,2.403 -0.465,4.231 -1.395,5.5 -0.922,1.211 -2.508,2.141 -4.738,2.692 v 1.551 c 2.277,-0.172 4.605,-0.25 7,-0.321 2.406,-0.07 4.887,-0.121 7.449,-0.121 2.711,0 5.328,0.051 7.867,0.121 2.532,0.071 5.059,0.149 7.61,0.321 v -1.551 c -2.235,-0.379 -3.84,-1.242 -4.824,-2.559 -0.997,-1.281 -1.481,-3.152 -1.481,-5.633 v -34.027 c 0,-9.551 0.805,-15.434 2.41,-17.691 1.598,-2.231 4.891,-3.34 9.856,-3.34 5.992,0 11.644,1.66 16.949,4.929 5.32,3.321 10.215,8.219 14.707,14.75 l 1.484,-0.531 -6.64,-22.801 h -41.571 c -0.73,0 -1.879,0.024 -3.433,0.051 -1.559,0.063 -2.715,0.071 -3.492,0.071 -2.735,0 -5.352,-0.051 -7.844,-0.122 -2.504,-0.046 -4.945,-0.156 -7.313,-0.296" /><path
         id="path168"
         style="fill:#f2b82f;fill-opacity:1;fill-rule:nonzero;stroke:none"
         d="M 897.445,687.602 V 689 c 2.832,0.602 4.778,2.191 5.813,4.781 1.023,2.528 1.551,8.481 1.551,17.778 v 35.05 c 0,2.403 -0.438,4.231 -1.395,5.5 -0.918,1.211 -2.512,2.141 -4.738,2.692 v 1.551 c 2.285,-0.172 4.609,-0.25 7.004,-0.321 2.402,-0.07 4.89,-0.121 7.461,-0.121 2.675,0 5.312,0.051 7.839,0.121 2.551,0.071 5.071,0.149 7.629,0.321 v -1.551 c -2.238,-0.379 -3.828,-1.242 -4.836,-2.559 -0.984,-1.281 -1.464,-3.152 -1.464,-5.633 v -34.027 c 0,-9.551 0.793,-15.434 2.402,-17.691 1.602,-2.231 4.894,-3.34 9.863,-3.34 5.989,0 11.653,1.66 16.953,4.929 5.293,3.321 10.188,8.219 14.719,14.75 l 1.453,-0.531 -6.648,-22.801 h -41.555 c -0.711,0 -1.875,0.024 -3.426,0.051 -1.554,0.063 -2.726,0.071 -3.488,0.071 -2.754,0 -5.359,-0.051 -7.852,-0.122 -2.507,-0.046 -4.929,-0.156 -7.285,-0.296" /><path
         id="path170"
         style="fill:#f2b82f;fill-opacity:1;fill-rule:nonzero;stroke:none"
         d="m 992.203,711.648 c 0,-9.058 0.516,-14.918 1.602,-17.566 1.062,-2.672 3.113,-4.34 6.113,-5.082 v -1.398 c -2.277,0.109 -4.688,0.179 -7.188,0.23 -2.48,0.039 -5.773,0.066 -9.933,0.066 -3.895,0 -7.012,-0.027 -9.356,-0.066 -2.304,-0.051 -4.531,-0.121 -6.668,-0.23 V 689 c 2.938,0.66 4.93,2.25 5.985,4.82 1.047,2.539 1.582,8.469 1.582,17.828 v 34.981 c 0,2.41 -0.477,4.211 -1.434,5.48 -0.976,1.223 -2.59,2.141 -4.855,2.692 v 1.551 c 2.344,-0.172 4.785,-0.25 7.238,-0.321 2.449,-0.07 4.969,-0.121 7.508,-0.121 2.715,0 5.371,0.051 7.98,0.121 2.637,0.071 5.254,0.149 7.899,0.321 v -1.551 c -2.324,-0.449 -3.985,-1.352 -5,-2.61 -0.977,-1.3 -1.473,-3.14 -1.473,-5.562 v -34.981" /><path
         id="path172"
         style="fill:#f2b82f;fill-opacity:1;fill-rule:nonzero;stroke:none"
         d="m 1015.98,718.98 c 0,-10.121 0.76,-17.269 2.4,-21.46 1.64,-4.141 4.5,-6.989 8.57,-8.489 v -1.32 c -2.51,0.07 -4.81,0.16 -6.85,0.211 -2,0.047 -3.8,0.09 -5.38,0.09 -1.93,0 -3.96,-0.043 -6.11,-0.09 -2.15,-0.051 -4.38,-0.141 -6.69,-0.211 l -0.05,1.238 c 3.71,1.582 6.37,4.653 7.96,9.09 1.56,4.473 2.34,11.473 2.34,20.941 v 20.711 c 0,5.5 -0.5,9.219 -1.48,11.079 -1.05,1.878 -2.85,3.261 -5.54,4.152 v 1.277 c 3.46,-0.058 6.21,-0.097 8.19,-0.109 2.05,-0.059 3.88,-0.059 5.55,-0.059 1.11,0 2.78,0 4.97,0.059 2.23,0.012 3.89,0.039 4.99,0.039 5.05,-5.688 10.71,-11.731 16.95,-18.238 6.23,-6.45 14.08,-14.34 23.5,-23.629 v 10.808 c 0,11.102 -0.79,18.52 -2.35,22.211 -1.54,3.668 -4.38,6.239 -8.45,7.758 v 1.313 c 2.41,-0.153 4.62,-0.211 6.64,-0.25 2.02,-0.051 3.8,-0.071 5.39,-0.071 1.96,0 4.01,0.02 6.18,0.071 2.16,0.039 4.43,0.097 6.84,0.25 v -1.231 c -3.94,-1.84 -6.69,-4.531 -8.16,-7.98 -1.54,-3.512 -2.32,-10.832 -2.32,-22.071 v -38.34 l -2.25,-0.73 c -9.35,10.191 -18.61,20.141 -27.74,29.832 -9.13,9.699 -18.18,19.18 -27.1,28.477 V 718.98" /><path
         id="path174"
         style="fill:#f2b82f;fill-opacity:1;fill-rule:nonzero;stroke:none"
         d="m 730.234,624.262 c -3.449,-2.461 -7.191,-4.262 -11.207,-5.481 -4.004,-1.172 -8.414,-1.769 -13.207,-1.769 -4.172,0 -8.105,0.609 -11.797,1.828 -3.707,1.242 -6.972,3 -9.793,5.281 -3.257,2.68 -5.644,5.699 -7.21,9.078 -1.555,3.442 -2.336,7.403 -2.336,11.891 0,8.18 2.937,14.781 8.816,19.84 5.875,5.019 13.609,7.582 23.23,7.582 3.989,0 7.805,-0.532 11.45,-1.5 3.633,-1.012 7.117,-2.492 10.441,-4.492 l -3.914,-12.7 -1.109,0.149 c -0.817,5.172 -2.547,9.062 -5.231,11.73 -2.668,2.672 -6.195,3.981 -10.594,3.981 -5.445,0 -9.714,-2.141 -12.832,-6.418 -3.105,-4.27 -4.652,-10.18 -4.652,-17.782 0,-8.128 1.543,-14.429 4.637,-18.898 3.101,-4.512 7.445,-6.73 13.058,-6.73 4.653,0 8.348,1.437 11.043,4.41 2.707,2.91 4.571,7.508 5.614,13.758 l 1.14,0.05 4.453,-13.808" /><path
         id="path176"
         style="fill:#f2b82f;fill-opacity:1;fill-rule:nonzero;stroke:none"
         d="m 763.941,619.711 c 5.161,0 8.993,2.039 11.504,6.16 2.516,4.149 3.77,10.461 3.77,18.938 0,8.48 -1.235,14.781 -3.742,18.89 -2.512,4.082 -6.348,6.141 -11.532,6.141 -5.214,0 -9.054,-2.031 -11.519,-6.09 -2.465,-4.039 -3.676,-10.352 -3.676,-18.941 0,-8.598 1.234,-14.95 3.711,-19.02 2.461,-4.059 6.293,-6.078 11.484,-6.078 z m -30.507,25.211 c 0,4.098 0.796,7.859 2.386,11.289 1.586,3.43 3.95,6.48 7.063,9.168 2.754,2.351 5.906,4.101 9.453,5.32 3.543,1.211 7.387,1.813 11.531,1.813 4.352,0 8.258,-0.602 11.707,-1.813 3.481,-1.187 6.598,-2.969 9.399,-5.398 3.168,-2.742 5.574,-5.832 7.16,-9.262 1.601,-3.379 2.398,-7.09 2.398,-11.117 0,-3.953 -0.797,-7.66 -2.422,-11.102 -1.625,-3.429 -4.058,-6.578 -7.296,-9.468 -2.665,-2.352 -5.786,-4.18 -9.344,-5.43 -3.578,-1.262 -7.399,-1.91 -11.449,-1.91 -4.149,0 -8.04,0.648 -11.715,1.949 -3.684,1.309 -6.907,3.18 -9.664,5.578 -2.953,2.633 -5.235,5.723 -6.821,9.231 -1.59,3.55 -2.386,7.25 -2.386,11.152" /><path
         id="path178"
         style="fill:#f2b82f;fill-opacity:1;fill-rule:nonzero;stroke:none"
         d="m 795.484,618.281 v 1.078 c 2.215,0.493 3.727,1.7 4.536,3.692 0.82,1.969 1.214,6.508 1.214,13.691 v 27.008 c 0,1.84 -0.355,3.23 -1.082,4.199 -0.734,0.981 -1.964,1.66 -3.687,2.141 v 1.121 c 1.762,-0.102 3.578,-0.16 5.449,-0.211 1.875,-0.07 3.805,-0.109 5.805,-0.109 2.117,0 4.156,0.039 6.136,0.109 1.961,0.051 3.95,0.109 5.918,0.211 v -1.121 c -1.726,-0.32 -2.98,-1 -3.753,-1.988 -0.778,-0.981 -1.157,-2.442 -1.157,-4.352 v -26.219 c 0,-7.34 0.621,-11.89 1.875,-13.609 1.254,-1.731 3.821,-2.59 7.7,-2.59 4.664,0 9.07,1.258 13.203,3.809 4.14,2.519 7.972,6.308 11.457,11.379 l 1.16,-0.45 -5.176,-17.519 h -32.391 c -0.566,0 -1.48,0 -2.679,0.019 -1.223,0.02 -2.125,0.02 -2.739,0.02 -2.128,0 -4.164,0 -6.105,-0.039 -1.957,-0.082 -3.844,-0.153 -5.684,-0.27" /><path
         id="path180"
         style="fill:#f2b82f;fill-opacity:1;fill-rule:nonzero;stroke:none"
         d="m 850.238,618.281 v 1.078 c 2.211,0.493 3.742,1.7 4.547,3.692 0.789,1.969 1.207,6.508 1.207,13.691 v 27.008 c 0,1.84 -0.363,3.23 -1.109,4.199 -0.699,0.981 -1.93,1.66 -3.672,2.141 v 1.121 c 1.769,-0.102 3.59,-0.16 5.445,-0.211 1.875,-0.07 3.809,-0.109 5.824,-0.109 2.098,0 4.145,0.039 6.125,0.109 1.985,0.051 3.938,0.109 5.922,0.211 v -1.121 c -1.718,-0.32 -2.984,-1 -3.75,-1.988 -0.793,-0.981 -1.152,-2.442 -1.152,-4.352 v -26.219 c 0,-7.34 0.613,-11.89 1.859,-13.609 1.246,-1.731 3.825,-2.59 7.711,-2.59 4.649,0 9.051,1.258 13.203,3.809 4.141,2.519 7.957,6.308 11.465,11.379 l 1.153,-0.45 -5.196,-17.519 h -32.379 c -0.582,0 -1.464,0 -2.675,0.019 -1.215,0.02 -2.125,0.02 -2.731,0.02 -2.129,0 -4.152,0 -6.129,-0.039 -1.953,-0.082 -3.82,-0.153 -5.668,-0.27" /><path
         id="path182"
         style="fill:#f2b82f;fill-opacity:1;fill-rule:nonzero;stroke:none"
         d="m 904.996,618.309 v 1.07 c 2.207,0.473 3.731,1.703 4.539,3.703 0.82,1.969 1.211,6.527 1.211,13.707 v 26.82 c 0,1.84 -0.34,3.243 -1.094,4.223 -0.742,0.957 -1.941,1.648 -3.672,2.117 v 1.153 c 0.098,0 0.254,0 0.469,0 5.606,-0.102 9.785,-0.172 12.551,-0.172 h 33.457 l 4.492,-13.571 -1.164,-0.308 c -3.359,3.738 -7.168,6.558 -11.465,8.347 -4.316,1.813 -9.297,2.743 -14.98,2.743 -1.309,0 -2.305,0 -2.918,-0.039 -0.645,-0.02 -1.242,-0.051 -1.758,-0.141 V 647.77 c 0.879,-0.028 1.746,-0.079 2.578,-0.122 0.828,-0.007 1.699,-0.027 2.567,-0.027 4.726,0 8.625,0.758 11.691,2.289 3.066,1.551 5.039,3.692 5.906,6.43 h 1.125 v -20.11 h -1.125 c -0.918,2.879 -2.898,5.071 -5.906,6.579 -3.02,1.543 -6.965,2.281 -11.848,2.281 -1.347,0 -2.371,-0.008 -3.066,-0.031 -0.684,-0.039 -1.328,-0.09 -1.922,-0.137 v -7.32 c 0,-7.34 0.574,-11.903 1.785,-13.622 1.211,-1.761 3.742,-2.648 7.598,-2.648 4.805,0 9.316,1.238 13.488,3.688 4.129,2.421 8.074,6.121 11.836,11.089 l 1.387,-0.48 -5.246,-17.078 H 922.25 c -0.605,0 -1.492,0.019 -2.695,0.039 -1.219,0 -2.137,0.039 -2.723,0.039 -2.16,0 -4.199,-0.039 -6.152,-0.078 -1.953,-0.051 -3.848,-0.141 -5.684,-0.242" /><path
         id="path184"
         style="fill:#f2b82f;fill-opacity:1;fill-rule:nonzero;stroke:none"
         d="m 1023.83,645.512 v -1.102 c -2.09,-0.531 -3.51,-1.219 -4.23,-2.058 -0.73,-0.821 -1.1,-2.192 -1.1,-4.082 v -8.899 c 0,-0.801 0.02,-1.601 0.07,-2.461 0.08,-0.851 0.11,-1.719 0.18,-2.601 -3.02,-2.508 -6.46,-4.368 -10.36,-5.579 -3.85,-1.238 -8.23,-1.859 -13.054,-1.859 -9.656,0 -17.371,2.559 -23.191,7.668 -5.801,5.109 -8.692,11.883 -8.692,20.383 0,8.226 2.949,14.91 8.895,19.937 5.949,5.09 13.781,7.653 23.527,7.653 4.225,0 8.355,-0.571 12.365,-1.672 4.03,-1.07 7.76,-2.649 11.16,-4.738 l -4.8,-13.141 -1.15,0.309 c -0.83,5.57 -2.64,9.742 -5.4,12.449 -2.74,2.73 -6.46,4.121 -11.14,4.121 -6.113,0 -10.625,-2.09 -13.633,-6.25 -3.019,-4.16 -4.523,-10.442 -4.523,-18.809 0,-8.601 1.289,-14.961 3.879,-19.082 2.597,-4.09 6.562,-6.179 11.953,-6.179 3.894,0 6.624,1 8.134,2.902 1.53,1.93 2.3,5.488 2.3,10.75 0,4.578 -0.63,7.508 -1.87,8.797 -1.23,1.32 -3.771,2.133 -7.541,2.441 v 1.102 c 2.278,-0.082 4.571,-0.172 6.891,-0.242 2.33,-0.02 4.7,-0.071 7.09,-0.071 2.09,0 4.34,0.051 6.73,0.071 2.38,0.07 4.88,0.16 7.51,0.242" /><path
         id="path186"
         style="fill:#f2b82f;fill-opacity:1;fill-rule:nonzero;stroke:none"
         d="m 1024.83,618.309 v 1.07 c 2.23,0.473 3.73,1.703 4.53,3.703 0.83,1.969 1.23,6.527 1.23,13.707 v 26.82 c 0,1.84 -0.36,3.243 -1.09,4.223 -0.72,0.957 -1.94,1.648 -3.71,2.117 v 1.153 c 0.12,0 0.29,0 0.49,0 5.59,-0.102 9.82,-0.172 12.56,-0.172 h 33.48 l 4.47,-13.571 -1.16,-0.308 c -3.36,3.738 -7.17,6.558 -11.47,8.347 -4.3,1.813 -9.3,2.743 -14.96,2.743 -1.32,0 -2.3,0 -2.94,-0.039 -0.62,-0.02 -1.21,-0.051 -1.78,-0.141 V 647.77 c 0.89,-0.028 1.76,-0.079 2.62,-0.122 0.83,-0.007 1.68,-0.027 2.54,-0.027 4.74,0 8.63,0.758 11.69,2.289 3.07,1.551 5.05,3.692 5.92,6.43 h 1.11 v -20.11 h -1.11 c -0.95,2.879 -2.9,5.071 -5.92,6.579 -3,1.543 -6.95,2.281 -11.83,2.281 -1.33,0 -2.38,-0.008 -3.07,-0.031 -0.69,-0.039 -1.33,-0.09 -1.95,-0.137 v -7.32 c 0,-7.34 0.62,-11.903 1.8,-13.622 1.2,-1.761 3.73,-2.648 7.6,-2.648 4.82,0 9.3,1.238 13.48,3.688 4.14,2.421 8.09,6.121 11.82,11.089 l 1.41,-0.48 -5.2,-17.078 h -33.31 c -0.59,0 -1.47,0.019 -2.69,0.039 -1.2,0 -2.13,0.039 -2.74,0.039 -2.13,0 -4.15,-0.039 -6.14,-0.078 -1.95,-0.051 -3.83,-0.141 -5.68,-0.242" /><path
         id="path188"
         style="fill:#f2b82f;fill-opacity:1;fill-rule:nonzero;stroke:none"
         d="m 1047.48,901.41 v 13.871 h -4.38 v 2.508 h 11.87 v -2.508 h -4.35 V 901.41 h -3.14" /><path
         id="path190"
         style="fill:#f2b82f;fill-opacity:1;fill-rule:nonzero;stroke:none"
         d="m 1070.04,901.41 v 14.332 l -4.53,-14.332 h -1.54 l -4.56,14.332 V 901.41 h -2.39 v 16.379 h 4.62 l 3.41,-10.547 3.39,10.547 h 4.62 V 901.41 h -3.02" /><path
         id="path192"
         style="fill:#5e2e16;fill-opacity:1;fill-rule:nonzero;stroke:none"
         d="m 784.805,20.6797 c 0,-11.34767 9.211,-20.570325 20.566,-20.570325 11.363,0 20.567,9.222655 20.567,20.570325 V 327.922 c -13.793,0.738 -27.504,1.808 -41.133,3.16 V 20.6797" /><path
         id="path194"
         style="fill:#5e2e16;fill-opacity:1;fill-rule:nonzero;stroke:none"
         d="M 1106.75,14.2305 C 1106.75,6.37109 1113.13,0 1120.98,0 c 7.86,0 14.24,6.37109 14.24,14.2305 V 363.309 c -9.44,-2.739 -18.9,-5.547 -28.47,-8.008 V 14.2305" /><path
         id="path196"
         style="fill:#5e2e16;fill-opacity:1;fill-rule:nonzero;stroke:none"
         d="M 1273.66,11.0703 C 1273.66,4.94922 1278.61,0 1284.73,0 c 6.11,0 11.08,4.94922 11.08,11.0703 V 426.648 c -7.36,-3.738 -14.69,-7.476 -22.15,-10.988 V 11.0703" /><path
         id="path198"
         style="fill:#5e2e16;fill-opacity:1;fill-rule:nonzero;stroke:none"
         d="m 946.168,17.5313 c 0,-9.60942 7.793,-17.390675 17.41,-17.390675 9.61,0 17.395,7.781255 17.395,17.390675 V 332.469 c -11.524,-1.297 -23.145,-2.27 -34.805,-3.11 V 17.5313" /><path
         id="path200"
         style="fill:#5e2e16;fill-opacity:1;fill-rule:nonzero;stroke:none"
         d="m 458.906,28.6016 c 0,-15.7227 12.75,-28.492225 28.477,-28.492225 15.726,0 28.476,12.769525 28.476,28.492225 V 399.41 c -19.371,8.18 -38.281,17.199 -56.953,26.641 V 28.6016" /><path
         id="path202"
         style="fill:#5e2e16;fill-opacity:1;fill-rule:nonzero;stroke:none"
         d="m 617.109,23.8711 c 0,-13.1094 10.621,-23.730475 23.731,-23.730475 13.105,0 23.73,10.621075 23.73,23.730475 V 351.199 c -15.98,3.75 -31.804,7.883 -47.461,12.442 V 23.8711" /><path
         id="path204"
         style="fill:#5e2e16;fill-opacity:1;fill-rule:nonzero;stroke:none"
         d="m 515.859,2517.33 h 101.25 v -159.08 h -101.25 z m 148.711,0 H 784.805 V 2358.25 H 664.57 Z m 161.368,0 h 120.23 v -159.08 h -120.23 z m 155.035,0 H 1106.75 V 2358.25 H 980.973 Z m 154.247,0 h 138.44 V 2358.25 H 1135.22 Z M 515.859,2319.6 h 101.25 v -170.37 c 15.657,4.57 31.481,8.71 47.461,12.45 v 157.92 h 120.235 v -137.79 c 13.629,1.35 27.34,2.4 41.133,3.14 v 134.65 h 120.23 v -136.06 c 11.66,-0.87 23.281,-1.83 34.805,-3.13 v 139.19 h 125.777 v -162.03 c 9.57,-2.44 19.03,-5.24 28.47,-7.99 v 170.02 h 138.44 v -222.36 c 7.46,-3.53 14.79,-7.27 22.15,-11 v 554.43 c 0,6.12 -4.97,11.07 -11.08,11.07 -6.12,0 -11.07,-4.95 -11.07,-11.07 v -84.69 h -138.44 v 81.52 c 0,7.86 -6.38,14.24 -14.24,14.24 -7.85,0 -14.23,-6.38 -14.23,-14.24 v -81.52 H 980.973 v 78.36 c 0,9.61 -7.785,17.4 -17.395,17.4 -9.617,0 -17.41,-7.79 -17.41,-17.4 v -78.36 h -120.23 v 75.2 c 0,11.35 -9.204,20.56 -20.567,20.56 -11.355,0 -20.566,-9.21 -20.566,-20.56 v -75.2 H 664.57 v 72.03 c 0,13.11 -10.625,23.73 -23.73,23.73 -13.11,0 -23.731,-10.62 -23.731,-23.73 v -72.03 h -101.25 v 67.15 c 0,15.73 -12.75,28.48 -28.476,28.48 -15.727,0 -28.477,-12.75 -28.477,-28.48 v -536.29 c 18.672,9.44 37.582,18.46 56.953,26.65 v 206.11" /><path
         id="path206"
         style="fill:#f2b82f;fill-opacity:1;fill-rule:nonzero;stroke:none"
         d="m 394.922,1311.49 c 6.672,0 13.668,0.94 20.816,2.79 22.539,5.82 36.575,21.22 48.969,34.82 9.652,10.59 17.988,19.73 28.207,22.11 5.16,1.2 10.445,13.45 10.41,15.69 -0.011,1 -0.226,1.87 -0.488,2.89 -0.5,1.98 -1.348,5.3 -1.453,13.14 l -0.582,42.34 c -0.227,16.92 5.66,21.78 8.816,24.39 1.184,0.97 2.196,1.81 2.571,3.05 1.468,4.86 3.148,8.03 4.378,10.35 1.231,2.32 2.2,4.15 2.168,6.21 -0.046,3.93 -3.476,6.61 -7.339,5.61 -0.985,-0.24 -2.391,-0.75 -4.618,-1.56 -5.472,-1.99 -16.855,-6.14 -41.468,-13.06 -14.149,-3.99 -22.008,-5.23 -26.711,-5.96 -2.153,-0.35 -3.618,-0.59 -4.637,-0.9 -4.367,-1.33 -11.68,-14.52 -11.621,-18.41 0.039,-2.87 1.781,-4.6 4.652,-4.6 1.031,0 2.129,0.21 3.281,0.44 0.965,0.19 2.055,0.4 3.168,0.47 11.422,0.76 18.899,-1.77 19.157,-19.68 l 0.461,-32.89 c 0.347,-24.47 -15.309,-32.31 -24.664,-34.81 -4.43,-1.18 -8.692,-1.77 -12.676,-1.77 -29.41,0 -46.012,32.65 -46.739,91.94 -0.742,60.08 18.516,103.13 51.504,115.15 9.067,3.3 17.305,4.98 24.512,4.98 14.949,0 25.145,-7.5 27.262,-20.06 2.933,-17.39 4.461,-21.15 8.586,-21.15 l 1.34,0.2 c 3.375,0.97 5.097,6.21 5.683,8.4 0.309,1.18 0.934,2.01 1.653,2.97 1.066,1.41 2.394,3.18 2.351,5.93 -0.039,3.11 -0.312,6.09 -0.672,9.88 -0.59,6.34 -1.398,15.02 -1.609,30.56 -0.152,11.59 0.508,20.16 0.941,25.82 0.231,2.97 0.399,5.2 0.375,6.72 -0.07,5.7 -3.679,7 -6.652,6.02 -0.774,-0.26 -1.422,-0.78 -3.352,-2.36 -3.66,-3.01 -10.488,-8.6 -17.047,-10.83 -3.113,-1.05 -6.082,-1.23 -9.847,-1.44 -6.695,-0.38 -15.024,-0.87 -29.32,-6.27 -62.614,-23.62 -103.958,-118.41 -103.278,-192.12 0.586,-63.79 29.445,-105.01 73.512,-105" /><path
         id="path208"
         style="fill:#f2b82f;fill-opacity:1;fill-rule:nonzero;stroke:none"
         d="m 513.563,1614.18 c 0.984,0 2.222,0.14 3.75,0.34 l 1.609,0.19 c 12.008,1.32 17.058,-10.34 17.433,-42.11 l 1.653,-140.2 c 0.613,-52.49 34.926,-75.97 68.648,-75.97 4.028,0 8.153,0.32 12.235,0.97 61.453,9.74 93.746,55.59 93.394,132.59 l -0.461,105.49 c -0.187,41.93 5.731,53.77 16.004,60.06 3.348,2.05 8.793,13.26 8.789,16.17 -0.019,4.63 -2.707,7.39 -7.199,7.39 -0.449,0 -0.895,-0.03 -1.309,-0.07 -1.039,-0.12 -2.14,-0.48 -3.671,-0.98 -3.348,-1.09 -9.579,-3.12 -22.387,-4.85 -20.176,-2.73 -28.637,-2.91 -33.699,-3.02 -2.293,-0.05 -3.954,-0.07 -5.614,-0.36 -3.218,-0.53 -4.707,-3.29 -6.285,-6.2 -0.48,-0.9 -0.992,-1.86 -1.613,-2.86 -0.406,-0.64 -0.809,-1.25 -1.203,-1.83 -1.66,-2.49 -3.239,-4.84 -3.207,-8.57 0.035,-4.52 4.062,-4.65 7.008,-4.73 l 1.363,-0.05 c 17.523,-0.71 24.691,-5.91 24.961,-55.27 l 0.558,-97.88 c 0.305,-53.41 -17.394,-84.38 -51.199,-89.56 -2.359,-0.36 -4.676,-0.54 -6.875,-0.54 h -0.008 c -24.597,0 -39.519,23.15 -39.91,61.95 l -1.223,121.21 c -0.304,31.63 1.875,38.13 16.743,49.63 2.129,1.63 7.847,14.47 7.832,16.79 -0.035,4.55 -4.028,7.18 -9.637,5.97 -2.602,-0.56 -5.539,-1.48 -10,-2.9 -7.645,-2.42 -19.203,-6.08 -40.313,-11.48 -14.257,-3.65 -21.96,-4.53 -26.113,-5 -1.859,-0.21 -3.105,-0.37 -3.926,-0.61 -5.625,-1.58 -11.582,-15.11 -11.543,-18.15 0.051,-3.69 1.872,-5.56 5.415,-5.56" /><path
         id="path210"
         style="fill:#f2b82f;fill-opacity:1;fill-rule:nonzero;stroke:none"
         d="m 754.211,1657.25 c 10.086,-0.38 19.148,-3 19.191,-30.56 l 0.36,-194.71 c 0.027,-18.04 -6.035,-29.72 -12.059,-31.93 -5.859,-2.16 -8.898,-13.42 -8.89,-16.93 0.003,-2.57 1.175,-5.64 6.718,-5.64 0.489,0 1.02,0.03 1.598,0.07 0.859,0.06 2.137,0.31 4,0.69 5.082,1.06 15.652,3.24 35.406,4.23 16.36,0.81 25.32,-0.12 30.602,-0.67 2.183,-0.23 3.918,-0.37 5.664,-0.39 4.058,0.1 12.199,12.42 12.203,17.2 0.004,2.18 -1.207,4.9 -6.984,5.52 -10.477,1.13 -19.145,4.17 -19.137,30.23 l 0.031,195.17 c 0.008,18.95 6.324,31.35 12.266,33.39 5.953,2.06 9.082,13.86 9.09,17.58 0,4.06 -2.512,6.11 -7.461,6.11 l -0.832,-0.02 c -1.016,-0.04 -2.618,-0.29 -5.071,-0.7 -5.64,-0.94 -16.144,-2.71 -35.054,-4 -7.219,-0.5 -13.645,-0.73 -19.629,-0.73 -4.442,0 -7.785,0.13 -10.399,0.23 -3.008,0.12 -5.078,0.18 -6.777,0.02 -3.926,-0.38 -12.035,-14.04 -12.02,-18.84 0.004,-2.3 1.258,-5.09 7.184,-5.32" /><path
         id="path212"
         style="fill:#f2b82f;fill-opacity:1;fill-rule:nonzero;stroke:none"
         d="m 858.891,1595.64 c -0.004,-3.28 0.382,-7.52 2.246,-9.25 l 1.289,-0.94 1.082,0.01 c 3.637,0.06 5.652,3.1 7.422,5.78 0.433,0.66 0.867,1.33 1.336,1.95 l 0.449,0.58 c 2.894,3.82 4.723,6.81 5.863,19.77 1.289,14.65 7.969,32.09 32.492,32.09 l 0.985,-0.01 c 6.125,-0.1 9.59,-0.18 15.05,-0.35 l -0.792,-210.71 c -0.059,-16.07 -8.934,-29.17 -14.872,-30.15 -4.453,-0.75 -9.093,-13.41 -9.101,-16.6 -0.02,-3.68 1.883,-5.56 5.672,-5.63 l 0.929,-0.01 c 3.301,0 6.707,0.26 10.645,0.55 7.227,0.54 16.746,1.27 31.016,0.68 8.847,-0.38 16.718,-1.49 24.343,-2.57 6.368,-0.9 12.375,-1.75 18.828,-2.18 l 0.207,-0.01 c 2.02,0 2.899,1.66 3.887,3.57 0.574,1.12 1.317,2.5 2.11,3.4 2.603,2.88 4.433,6.5 4.443,8.79 0.01,1.36 -0.7,5.87 -10.186,6.51 -12.882,0.88 -19.375,11.57 -19.257,31.79 l 1.062,210.16 c 6.34,-0.42 10.332,-0.72 17.422,-1.31 26.849,-2.18 30.349,-24.93 30.789,-31.86 1.73,-27.26 1.87,-29.48 7.66,-30.07 4.78,0 11.87,12.3 11.89,16.17 0.01,1.19 -0.12,3.59 -0.32,7.03 -0.48,8.6 -1.27,22.99 -1.15,41.52 0.1,15.91 1.07,25.95 1.6,31.34 0.23,2.28 0.37,3.88 0.38,4.88 0.03,5.96 -3.4,7.62 -6.86,7.99 -2.17,0 -3.94,-1.29 -6.4,-3.1 -5.26,-3.86 -14.52,-10.62 -34.921,-8.86 -37.93,3.21 -56.516,4.09 -94.738,4.47 -17.149,0.17 -22.578,7.83 -25.809,12.4 -1.516,2.14 -2.707,3.83 -4.977,3.83 -3.519,-0.06 -11.578,-10.55 -11.582,-14.11 -0.003,-3.04 0.29,-7.29 0.622,-12.21 0.488,-7.04 1.082,-15.79 1.07,-24.7 -0.027,-16.41 -0.832,-30.92 -1.363,-40.51 -0.266,-4.71 -0.457,-8.2 -0.461,-10.12" /><path
         id="path214"
         style="fill:#f2b82f;fill-opacity:1;fill-rule:nonzero;stroke:none"
         d="m 1148.35,1517.58 c -15.78,2.69 -25.54,4.11 -40.95,6.34 l -3.67,0.53 c 9.18,29.79 14.37,46.87 23.02,75.4 8.25,-31.57 13.14,-50.1 21.6,-82.27 z m 83.43,-166.93 c 3.84,-1.11 6.82,-1.98 9.14,-2.46 l 0.93,-0.09 c 5.35,0 11.38,10.35 11.46,13.81 0.08,4.22 -2.22,5.93 -3.59,6.58 -6.93,3.23 -11.94,5.55 -16.51,17.04 -18.4,46.35 -62.28,165.08 -72.24,266.65 l -0.56,5.92 c -1.29,13.99 -2.01,21.69 -7.66,22.87 l -0.83,0.1 c -2.06,0 -3.37,-1.43 -5.04,-3.25 -2.84,-3.1 -7.61,-8.3 -19.39,-11.74 -2.04,-0.59 -4.49,-0.87 -7.71,-0.87 -1.15,0 -2.27,0.03 -3.25,0.06 -2.34,0.08 -3.85,0.07 -4.84,-0.16 -2.82,-0.72 -6.08,-8.99 -6.1,-11.41 -0.01,-1.68 0.33,-3.05 0.69,-4.49 0.46,-1.86 1,-3.97 0.97,-7.65 -0.06,-8.88 -13.96,-59.17 -31,-112.08 -4.54,-14.06 -8.54,-26.66 -12.11,-37.92 -20.21,-63.53 -27.02,-84.94 -38.43,-89.93 -4.29,-1.87 -9.47,-12.09 -9.48,-15.23 -0.01,-3.61 2.7,-6.45 6.44,-6.75 2.96,-0.24 6.25,-0.36 10.35,-0.36 2.14,0 4.26,0.03 6.4,0.06 2.1,0.03 4.19,0.06 6.27,0.06 4.55,0 7.97,-0.15 11.08,-0.46 2.95,-0.29 8.86,-1.54 14.56,-2.74 5.99,-1.26 12.2,-2.56 16,-3.01 4.47,-0.55 6.07,1.75 8.91,5.41 0.54,0.71 1.18,1.26 1.78,1.8 1.54,1.37 3.44,3.07 3.46,6.21 0.03,4.86 -2.09,7.58 -6.32,8.1 -8.82,1.1 -18.31,8.96 -18.23,19.74 0.14,19.24 6.22,40.65 11.6,59.52 1.76,6.17 3.45,12.13 4.87,17.76 24.53,-3.31 38.42,-5.27 64.02,-9.69 1.68,-8.3 3.99,-17.58 6.43,-27.36 4.77,-19.12 9.68,-38.88 9.53,-50.32 -0.05,-4.5 -1.27,-15.38 -11.32,-19.6 -3.32,-1.38 -8.78,-12.05 -8.8,-14.52 -0.05,-4.98 2.66,-6.46 4.95,-6.83 2.11,-0.33 4.13,-0.38 6.69,-0.44 5.04,-0.12 12.65,-0.29 27.97,-3.06 18.38,-3.32 30.74,-6.91 38.91,-9.27" /><path
         id="path216"
         style="fill:#f2b82f;fill-opacity:1;fill-rule:nonzero;stroke:none"
         d="m 1320.49,1511.88 1.71,64.38 c 1.91,-0.38 3.8,-0.71 5.72,-1.04 5.15,-0.89 10.47,-1.81 16.12,-3.85 26.85,-9.67 31.97,-29.36 31.55,-44.18 -0.81,-28.65 -12.1,-38.49 -34.95,-31.18 -17.98,5.75 -20.28,11.25 -20.15,15.87 z m 12.06,-164.86 c -10.84,5.67 -16.21,13.19 -15.51,38.63 l 2.28,83.93 c 20.92,-6.51 28.31,-13.88 42.46,-75.72 18.15,-79.41 30.55,-88.48 47.4,-93.28 1.38,-0.4 2.81,-0.6 4.24,-0.6 7,0 13.61,4.61 19.96,9.03 5.44,3.77 11.05,7.67 16.25,8.18 6.33,0.62 9.42,15.89 9.44,16.89 0.04,2.64 -1.21,6.14 -4.9,7.33 l -1.19,0.17 c -1.32,0 -2.86,-0.57 -4.98,-1.37 -3.73,-1.41 -9.54,-3.29 -13.43,-2.1 -12.94,4.04 -19.85,30.92 -26.52,56.91 -7.25,28.31 -14.74,57.43 -30.89,69.67 22.23,0.99 45.56,19.2 46.4,52.17 0.94,36.73 -20.43,69.2 -54.45,82.75 -11.96,4.75 -22.45,7.53 -34.61,10.73 -10.83,2.86 -23.11,6.1 -39.46,11.5 -14.16,4.66 -21.91,8.2 -26.54,10.32 -2.24,1.01 -3.8,1.7 -4.94,2.05 -0.61,0.19 -1.21,0.29 -1.82,0.29 -2.75,0 -4.41,-1.91 -5.75,-3.43 -0.46,-0.52 -0.95,-1.07 -1.47,-1.58 l -1.29,-1.12 c -2.11,-1.87 -3.95,-3.47 -4,-6.14 -0.09,-5.49 3.83,-7.03 7.63,-8.51 0.92,-0.36 1.91,-0.74 2.97,-1.22 9.95,-4.48 14.31,-18.11 13.75,-42.91 l -3.89,-166.5 c -0.62,-25.97 -3.66,-36.33 -11.23,-38.21 -3.45,-0.85 -5.62,-2.81 -6.7,-6.01 -0.27,-0.85 -0.79,-1.51 -1.37,-2.29 -0.99,-1.29 -2.21,-2.9 -2.27,-5.43 -0.07,-3.28 2.24,-6.38 5.24,-7.03 6.07,-1.33 12.28,-2.18 18.28,-3 6.59,-0.91 13.4,-1.84 19.96,-3.41 6.13,-1.47 12.19,-3.52 18.61,-5.7 6.38,-2.16 12.96,-4.41 20.21,-6.26 l 0.76,-0.1 c 3.07,0 11.27,8.67 11.33,11.17 0.12,4.22 -2.38,6.24 -9.96,10.2" /><path
         id="path218"
         style="fill:#f2b82f;fill-opacity:1;fill-rule:nonzero;stroke:none"
         d="m 367.234,1132.78 c -23.382,2.89 -41.839,5.14 -42,29.71 -0.132,19.5 11.504,34.26 31.133,39.43 5.719,1.48 11.031,2.27 15.797,2.27 19.324,0 26.715,-12.64 29.512,-23.24 1.14,-4.34 1.676,-8.45 2.097,-11.76 0.801,-6.13 1.422,-10.99 5.957,-10.98 l 1.172,0.14 c 3.926,0.85 10.828,13.97 10.778,17.93 -0.047,3.98 -0.496,9.95 -0.981,16.3 -0.558,7.36 -1.129,15.01 -1.207,20.75 -0.172,12.6 1.313,22.76 2.196,28.83 0.445,3.05 0.746,5.1 0.722,6.45 -0.051,4.55 -3.277,6.07 -6.312,5.28 -1.922,-0.5 -4.481,-2.26 -8.504,-5.09 -3.203,-2.24 -7.18,-5 -9.141,-5.52 -3.047,-0.79 -6.652,-0.96 -11.219,-1.17 -7.98,-0.39 -18.918,-0.89 -34.539,-5.27 -34.898,-9.82 -75.449,-55.87 -75.433,-100.57 0.019,-52.02 36.59,-56.69 65.984,-60.45 24.977,-3.16 44.703,-5.68 45,-30.41 0.344,-27.77 -13.914,-47.668 -36.308,-50.68 -3.208,-0.421 -6.407,-0.64 -9.481,-0.64 h -0.008 c -25.597,0 -45.265,15.57 -47.832,37.88 -1.351,11.7 -2.219,17.32 -7.199,17.32 l -1.086,-0.12 c -4.574,-0.83 -11.387,-13.59 -11.387,-19.65 0,-0.56 0.231,-2.37 0.598,-5.07 1.027,-7.66 2.953,-21.91 2.957,-35.079 0,-5.07 -0.441,-10.32 -0.871,-15.391 -0.438,-5.128 -0.895,-10.429 -0.891,-15.621 0,-1.398 0.102,-3 0.805,-4.25 0.598,-1.058 1.816,-2.308 4.316,-2.308 0.289,0 0.598,0.039 0.93,0.078 1,0.113 2.02,0.613 4.438,1.871 3.711,1.949 9.925,5.211 15.98,5.879 3.18,0.363 7.668,-0.039 13.164,-0.52 8.625,-0.769 19.84,-1.488 29.266,-0.429 43.894,4.851 90.789,46.45 90,105.19 -0.817,60.63 -38.293,65.22 -68.403,68.91" /><path
         id="path220"
         style="fill:#f2b82f;fill-opacity:1;fill-rule:nonzero;stroke:none"
         d="m 613.199,1267.52 c -0.152,15.13 0.641,24.79 1.063,29.97 0.187,2.15 0.301,3.66 0.289,4.59 -0.055,5.7 -3.442,6.56 -5.453,6.56 -0.469,0 -0.969,-0.05 -1.508,-0.14 -2.102,-0.37 -3.742,-2.02 -6.227,-4.52 -5.25,-5.27 -14.023,-14.12 -33.961,-17.92 -36.293,-6.87 -54.117,-10.59 -90.816,-18.96 -3.574,-0.81 -6.84,-1.23 -9.746,-1.23 -8.856,0 -12.383,3.78 -14.727,6.26 -1.285,1.41 -2.508,2.71 -4.363,2.71 l -0.871,-0.1 c -2.879,-0.71 -10.488,-11.52 -10.438,-14.8 0.036,-2.69 0.368,-6.41 0.766,-10.82 0.559,-6.25 1.254,-13.95 1.367,-22.04 0.203,-14.79 -0.367,-28.23 -0.746,-37.12 -0.183,-4.44 -0.324,-7.75 -0.293,-9.53 0.082,-6.11 1.574,-9.2 4.434,-9.2 l 0.683,0.06 c 3.266,0.71 5.008,3.62 6.688,6.48 0.41,0.68 0.832,1.39 1.273,2.07 l 0.426,0.65 c 2.723,4.07 4.426,7.19 5.332,19.33 1.039,13.95 7.457,31.7 32.121,37.02 5.641,1.22 8.918,1.91 13.813,2.92 l 2.66,-201.73 c 0.207,-15.07 -7.563,-30.48 -14.051,-32.52 -4.062,-1.27 -8.301,-14.42 -8.258,-17.428 0.055,-4.57 3.035,-5.23 4.817,-5.23 0.34,0 0.715,0 1.113,0.058 3.781,0.442 7.723,1.289 12.277,2.281 7.012,1.52 15.746,3.418 28.778,4.95 8.004,0.929 15.164,1.101 22.093,1.269 6.571,0.129 12.774,0.27 19.434,1.059 1.895,0.203 2.559,1.761 3.574,4.09 0.551,1.293 1.242,2.91 2.039,4.031 2.364,3.38 4,7.33 3.973,9.63 -0.024,2.97 -2.438,6.11 -10.399,5.18 -12.191,-1.5 -18.222,8.09 -18.468,28.47 -0.992,83.68 -1.492,124.68 -2.477,205.39 6.445,1.26 10.281,1.97 17.328,3.28 2.547,0.46 4.981,0.69 7.231,0.69 18.883,0 21.734,-17.07 22.152,-22.27 1.992,-24.65 2.246,-27.81 7.164,-27.81 0.348,0 0.707,0.04 1.094,0.09 4.226,0.7 10.992,14.53 10.957,18.27 -0.008,1.2 -0.176,3.45 -0.41,6.73 -0.586,8.12 -1.563,21.73 -1.727,39.28" /><path
         id="path222"
         style="fill:#f2b82f;fill-opacity:1;fill-rule:nonzero;stroke:none"
         d="m 834.84,1322.69 c -0.012,0 -0.027,0 -0.039,0 -1,-0.04 -2.059,-0.29 -3.531,-0.64 -3.235,-0.77 -9.254,-2.2 -21.668,-2.82 -7.282,-0.36 -13.747,-0.54 -19.207,-0.54 -6.723,0 -10.633,0.27 -13.481,0.47 -2.285,0.14 -3.828,0.25 -5.316,0.12 -3.239,-0.24 -4.821,-2.92 -6.348,-5.51 -0.453,-0.78 -0.953,-1.63 -1.527,-2.49 -0.383,-0.57 -0.762,-1.08 -1.125,-1.58 -1.59,-2.19 -3.239,-4.45 -3.227,-8.1 0.02,-4.24 3.66,-4.66 6.598,-5 l 1.289,-0.14 c 17.062,-2.15 24.027,-7.76 24.097,-55.53 l 0.145,-97.81 c 0.078,-54.93 -17.531,-86.49 -49.582,-88.84 -27.383,-2.04 -44.77,24.67 -45.043,68.84 l -0.801,121.86 c -0.211,31.03 1.758,36.68 16.176,46.42 2.184,1.46 7.793,13.26 7.777,15.58 -0.015,3.58 -2.644,7.25 -9.07,6.45 -2.41,-0.28 -5.074,-0.87 -9.098,-1.76 -7.418,-1.63 -18.621,-4.1 -39.75,-7.26 -12.168,-1.83 -19.375,-2.07 -24.289,-2.07 l -2.179,0.02 c -1.231,0 -2.118,-0.04 -2.766,-0.15 -5.617,-0.91 -11.602,-13.66 -11.57,-16.69 0.058,-5.96 4.601,-5.96 7.621,-5.96 h 2.551 c 12.074,0 16.875,-12.17 17.132,-43.42 l 1.172,-142.36 c 0.457,-57.01 36.856,-86.83 72.582,-86.83 1.754,0 3.52,0.08 5.282,0.22 58.71,4.63 91.027,51.34 90.984,131.41 l -0.066,105.45 c -0.024,44.5 7.339,52.02 15.535,56.28 3.574,1.85 8.734,12.26 8.734,14.89 0.004,2.35 -0.703,4.22 -2.094,5.54 -1.34,1.27 -3.238,1.95 -5.898,1.95" /><path
         id="path224"
         style="fill:#f2b82f;fill-opacity:1;fill-rule:nonzero;stroke:none"
         d="m 1002.55,1175.19 c -0.44,-82 -16.89,-123.61 -48.874,-123.61 l -1.192,0.02 c -10.183,0.34 -17.839,2.82 -25.632,8.37 -3.282,2.34 -4.922,13.31 -4.856,32.71 l 0.617,187.22 c 9.414,2.53 16.836,3.46 25.547,3.15 36.492,-1.25 54.79,-37.53 54.39,-107.86 z m -39.109,146.14 c -14.16,0.65 -23.281,-0.41 -30.125,-1.44 -7.55,-1.13 -16.535,-1.83 -37.871,-1.83 h -1.64 c -21.367,0.04 -27.578,1.3 -30.235,1.82 -0.914,0.19 -1.578,0.33 -2.461,0.33 h -0.011 c -3.36,-0.07 -11.618,-11.12 -11.621,-15.56 -0.004,-6.12 4.921,-6.5 8.519,-6.77 0.867,-0.07 1.805,-0.14 2.801,-0.27 8.789,-1.11 13.808,-15.16 13.766,-38.5 l -0.286,-167.01 c -0.074,-41.64 -4.691,-51.45 -12.644,-54.34 -4.207,-1.55 -8.149,-12.66 -8.153,-17.06 0,-4.17 2.497,-6.68 6.786,-6.68 1.828,0.01 3.547,0.34 5.726,0.77 4.028,0.79 10.125,1.96 22.578,1.96 h 0.008 c 10.871,-0.04 19.914,-1.63 28.672,-3.17 7.531,-1.36 14.641,-2.59 22.402,-2.79 l 1.973,-0.02 c 62.585,0 108.475,71.52 109.095,170 0.55,86.89 -31.26,138.1 -87.279,140.56" /><path
         id="path226"
         style="fill:#f2b82f;fill-opacity:1;fill-rule:nonzero;stroke:none"
         d="m 1140.55,1025.49 c -9.53,2.35 -18.05,6.77 -17.84,34.15 0.64,78.99 0.95,116.91 1.59,192.55 0.14,17.44 5.94,27.73 11.33,28.54 5.94,0.95 9.17,11.71 9.21,15.28 0.04,5.03 -4.2,6.27 -7.4,6.76 -0.92,0.13 -2.36,0.18 -4.56,0.23 -5.32,0.12 -15.19,0.35 -33.54,2.69 -15.1,1.94 -23.56,3.92 -29.18,5.24 -2.78,0.65 -4.79,1.12 -6.81,1.33 -3.79,0 -12.03,-10.84 -12.06,-15.88 -0.02,-4.49 4.88,-5.64 6.49,-6.02 10.06,-2.37 19.05,-6.68 18.88,-32.9 l -1.34,-193.83 c -0.13,-18.66 -6.19,-30.17 -11.82,-31.53 -5.96,-1.44 -9.13,-13.11 -9.15,-16.85 -0.04,-5.48 4.4,-6.4 7.74,-6.65 l 0.79,-0.02 c 0.82,0 1.97,0.07 3.47,0.17 2.8,0.2 7,0.48 13.06,0.48 6.42,0 13.57,-0.32 21.27,-0.99 15.54,-1.27 23.83,-3.29 28.77,-4.49 2.33,-0.57 4.02,-0.96 5.41,-1.09 h 0.29 c 3.94,0 11.56,11.83 11.61,16.7 0.03,3.04 -2.06,5.09 -6.21,6.13" /><path
         id="path228"
         style="fill:#f2b82f;fill-opacity:1;fill-rule:nonzero;stroke:none"
         d="m 1322.37,1069.9 -0.95,0.08 c -2.06,0 -3.55,-1.16 -4.64,-1.98 -0.39,-0.31 -0.98,-0.79 -1.12,-0.85 l -0.79,0.08 c -2.94,0 -6.37,-2.71 -6.89,-5.46 -3.56,-18.87 -10.18,-36.32 -34.43,-36.32 -2.72,0 -5.64,0.24 -8.71,0.66 -31.73,4.39 -41.29,11.19 -40.97,29.02 l 1.74,96.36 c 7.6,-0.65 16.03,-1.47 24.86,-3.05 18.88,-3.44 24.46,-10.01 25.93,-30.5 l 0.23,-3.25 c 0.54,-8.18 0.74,-10.92 5.29,-11.77 l 0.96,-0.08 c 3.07,0 4.6,2.57 5.82,4.61 0.59,1.05 1.24,2.1 2.39,3.3 1.93,1.74 3.85,4.08 4.05,11.8 0.05,1.6 -0.09,3.73 -0.27,6.58 -0.33,5.44 -0.85,13.65 -0.52,26 0.17,7.18 0.91,12.63 1.51,17.03 0.39,2.95 0.71,5.36 0.77,7.42 0.04,1.84 0.17,7.4 -4.56,8.39 l -0.77,0.08 c -1.54,0 -2.79,-0.87 -4.5,-2.04 -3.31,-2.38 -8.88,-6.31 -20.21,-6.31 -3.63,0 -7.62,0.42 -11.87,1.25 -12.19,2.33 -18.57,4.03 -25.97,6.01 l -2.47,0.67 1.24,64.81 c 7.96,-1.23 17.07,-2.69 28.87,-5.2 25.69,-5.4 36.62,-12.38 45.04,-28.76 3.39,-6.61 4.87,-14.41 5.95,-20.11 1.22,-6.44 1.88,-10.01 4.89,-10.67 l 0.88,-0.09 c 5.6,0 10.5,12.21 10.56,14.36 0.17,6.27 -0.71,13.16 -1.64,20.42 -0.62,4.89 -1.25,9.94 -1.57,14.84 -0.54,8.48 -0.69,14.83 -0.8,19.61 -0.24,11.05 -0.34,15.19 -5.98,16.57 -2.16,0.52 -3.71,0.63 -6.27,0.83 -7.62,0.6 -25.51,1.94 -100.79,16.23 -16.96,3.22 -25.9,5.91 -31.24,7.51 -2.61,0.77 -4.44,1.31 -6.42,1.6 -3.8,0 -11.71,-10.22 -11.77,-15.16 -0.04,-4.36 4.64,-5.79 6.18,-6.25 9.63,-2.91 18.26,-7.68 17.87,-33.62 -1.03,-74.98 -1.54,-112.57 -2.58,-190.17 -0.27,-20.29 -6.96,-29.24 -11.09,-30.12 -5.94,-1.3 -8.78,-12.93 -8.82,-16.26 -0.05,-5.34 4.13,-6.39 7.29,-6.71 0.62,-0.06 2.02,-0.1 4.16,-0.16 8.11,-0.15 27.12,-0.58 56.95,-4.11 53.94,-6.411 69.91,-10.122 75.93,-11.528 1.46,-0.32 2.38,-0.543 3.11,-0.633 0.34,-0.039 0.67,-0.058 1.01,-0.058 6.83,0 10.74,8.269 10.95,16.059 0.6,22.16 5.15,43.94 7.32,54.41 0.89,4.17 1.23,5.88 1.26,6.8 0.14,4.88 -2.12,7.45 -4.4,7.83" /><path
         id="path230"
         style="fill:#f2b82f;fill-opacity:1;fill-rule:nonzero;stroke:none"
         d="m 1440.14,1125.85 c -25.36,13.91 -47.26,25.92 -46.56,53.16 0.3,11.12 4.07,24.37 20.37,24.37 3.18,0 6.71,-0.5 10.54,-1.52 34.17,-9.16 44.45,-32.07 47.54,-44.91 1.1,-4.63 1.57,-8.75 1.95,-12.09 0.69,-6.19 1.25,-11.08 6,-12.22 l 0.82,-0.12 c 3.83,0 12.08,8.05 12.11,12.79 0.01,3.69 -0.36,9.43 -0.75,15.54 -0.46,7.14 -0.92,14.53 -0.9,19.94 0.07,11.73 1.82,20.35 2.87,25.46 0.53,2.67 0.9,4.42 0.91,5.71 0.02,3.25 -1.96,5.92 -5.03,6.81 -1.89,0.58 -5.26,0.31 -9.18,-0.08 -3.64,-0.35 -7.78,-0.65 -9.55,-0.15 -3.36,0.96 -7.29,2.93 -12.25,5.38 -8.08,4.01 -19.12,9.49 -34.51,13.85 -5.02,1.42 -10.22,2.15 -15.46,2.15 -29.39,0 -61.25,-23.52 -62.45,-67.07 -1.59,-57.03 35.59,-76.83 65.46,-92.7 22.8,-12.13 42.51,-22.63 42.15,-45.85 -0.36,-23.41 -12.97,-37.968 -32.92,-37.968 -1.98,0 -4.04,0.16 -6.1,0.438 -35.66,5.04 -53.68,33.51 -55.33,57.82 -0.99,14.82 -1.72,19.63 -6.46,20.54 l -0.66,0.06 c -4.75,0 -11.34,-11.26 -11.53,-17.88 -0.01,-0.64 0.14,-2.68 0.39,-5.75 0.72,-8.79 2.05,-25.2 1.66,-39.86 -0.16,-5.63 -0.74,-11.34 -1.29,-16.868 -0.57,-5.641 -1.14,-11.441 -1.31,-17.301 -0.07,-2.312 -0.22,-7.14 5.48,-7.812 0.98,0 2.09,0.402 3.95,1.07 3.56,1.281 9.22,3.32 14.92,2.609 2.85,-0.367 7.11,-1.839 12.06,-3.519 8.13,-2.809 18.26,-6.27 29.4,-7.609 3.56,-0.438 7.27,-0.641 11.03,-0.641 43.13,0 88.96,26.351 88.96,75.141 0,52.69 -35.24,72.01 -66.33,89.08" /></g></g></svg>